<?xml version="1.0" encoding="iso-8859-1"?>
<!-- Generator: Adobe Illustrator 18.0.0, SVG Export Plug-In . SVG Version: 6.00 Build 0)  -->
<!DOCTYPE svg PUBLIC "-//W3C//DTD SVG 1.1//EN" "http://www.w3.org/Graphics/SVG/1.1/DTD/svg11.dtd">
<svg version="1.1" id="Capa_1" xmlns="http://www.w3.org/2000/svg" xmlns:xlink="http://www.w3.org/1999/xlink" x="0px" y="0px"
	 viewBox="0 0 400.502 400.502" style="enable-background:new 0 0 400.502 400.502;" xml:space="preserve">
<g>
	<path d="M265.621,90.616l-1.263-0.743l-1.263,0.743c-2.253,1.325-22.016,13.316-22.016,25.859c0,0.173,0.018,0.346,0.024,0.518
		c-0.172-0.007-0.344-0.024-0.517-0.024c-12.543,0-24.536,19.762-25.861,22.016l-0.743,1.263l0.743,1.263
		c1.325,2.254,13.318,22.016,25.861,22.016c0.173,0,0.345-0.018,0.517-0.024c-0.007,0.172-0.024,0.344-0.024,0.516
		c0,12.544,19.762,24.536,22.016,25.862l1.263,0.743l1.263-0.743c2.253-1.326,22.015-13.318,22.015-25.862
		c0-0.172-0.018-0.344-0.025-0.516c0.172,0.007,0.345,0.024,0.518,0.024c12.543,0,24.534-19.763,25.86-22.016l0.743-1.263
		l-0.743-1.263c-1.326-2.253-13.317-22.016-25.86-22.016c-0.173,0-0.346,0.018-0.518,0.024c0.008-0.172,0.025-0.345,0.025-0.518
		C287.636,103.933,267.874,91.942,265.621,90.616z M264.358,95.833c1.447,0.926,3.974,2.617,6.693,4.789
		c-1.695,1.861-4.119,2.962-6.693,2.962c-2.576,0-4.999-1.101-6.695-2.963C260.384,98.45,262.91,96.759,264.358,95.833z
		 M224.732,146.943c-2.17-2.723-3.861-5.249-4.786-6.697c0.924-1.445,2.611-3.968,4.786-6.694c1.862,1.697,2.963,4.121,2.963,6.695
		C227.694,142.822,226.594,145.246,224.732,146.943z M240.588,158.547c-4.124,0-8.722-3.543-12.689-7.763
		c2.995-2.635,4.773-6.463,4.773-10.537c0-4.076-1.78-7.905-4.778-10.541c3.965-4.218,8.563-7.759,12.693-7.759
		c0.575,0,1.159,0.076,1.749,0.206c3.318,7.785,12.408,14.703,17.463,18.094c-5.055,3.393-14.146,10.311-17.463,18.094
		C241.747,158.471,241.162,158.547,240.588,158.547z M264.358,184.661c-1.448-0.926-3.976-2.617-6.696-4.787
		c1.695-1.861,4.12-2.962,6.696-2.962c2.576,0,5,1.1,6.693,2.961C268.332,182.044,265.806,183.735,264.358,184.661z
		 M274.896,176.706c-2.634-2.994-6.461-4.773-10.537-4.773c-4.078,0-7.908,1.779-10.541,4.776
		c-4.219-3.965-7.759-8.563-7.759-12.693c0-0.574,0.076-1.158,0.206-1.748c7.783-3.316,14.701-12.407,18.093-17.462
		c3.392,5.055,10.311,14.145,18.095,17.462c0.129,0.59,0.205,1.174,0.205,1.748C282.657,168.142,279.114,172.739,274.896,176.706z
		 M303.983,133.552c2.172,2.722,3.863,5.248,4.789,6.695c-0.926,1.448-2.618,3.975-4.789,6.696c-1.861-1.695-2.962-4.12-2.962-6.696
		C301.022,137.673,302.122,135.249,303.983,133.552z M288.128,121.947c4.124,0,8.721,3.543,12.688,7.763
		c-2.994,2.635-4.772,6.463-4.772,10.537c0,4.077,1.78,7.908,4.776,10.542c-3.964,4.218-8.561,7.758-12.691,7.758
		c-0.574,0-1.158-0.076-1.749-0.206c-3.317-7.783-12.408-14.701-17.462-18.094c5.054-3.391,14.145-10.31,17.462-18.094
		C286.968,122.023,287.554,121.947,288.128,121.947z M282.45,118.226c-7.783,3.317-14.701,12.407-18.093,17.462
		c-3.392-5.055-10.308-14.145-18.093-17.462c-0.129-0.59-0.206-1.176-0.206-1.75c0-4.124,3.542-8.721,7.761-12.688
		c2.637,2.996,6.465,4.774,10.539,4.774c4.076,0,7.906-1.78,10.541-4.778c4.217,3.964,7.758,8.561,7.758,12.691
		C282.657,117.05,282.581,117.636,282.45,118.226z"/>
	<path d="M265.621,192.124l-1.263-0.743l-1.263,0.743c-2.254,1.326-22.016,13.318-22.016,25.861c0,0.172,0.018,0.344,0.024,0.516
		c-0.172-0.007-0.344-0.024-0.517-0.024c-12.543,0-24.536,19.762-25.861,22.016l-0.743,1.263l0.743,1.263
		c1.325,2.254,13.318,22.016,25.861,22.016c0.173,0,0.345-0.018,0.517-0.024c-0.007,0.172-0.024,0.346-0.024,0.519
		c0,12.54,19.762,24.532,22.016,25.858l1.263,0.743l1.263-0.743c2.253-1.326,22.015-13.318,22.015-25.858
		c0-0.173-0.018-0.347-0.025-0.519c0.172,0.007,0.345,0.024,0.518,0.024c12.543,0,24.534-19.763,25.86-22.016l0.743-1.263
		l-0.743-1.263c-1.326-2.253-13.317-22.016-25.86-22.016c-0.173,0-0.346,0.018-0.518,0.024c0.008-0.172,0.025-0.344,0.025-0.516
		C287.636,205.442,267.874,193.45,265.621,192.124z M264.358,197.34c1.446,0.925,3.969,2.614,6.693,4.791
		c-1.693,1.861-4.117,2.961-6.693,2.961c-2.576,0-5-1.101-6.696-2.962C260.384,199.959,262.91,198.267,264.358,197.34z
		 M224.732,248.452c-2.171-2.723-3.861-5.25-4.787-6.697c0.924-1.446,2.612-3.968,4.787-6.693c1.861,1.694,2.962,4.117,2.962,6.693
		S226.594,246.756,224.732,248.452z M240.588,260.055c-4.124,0-8.722-3.542-12.688-7.762c2.995-2.635,4.772-6.463,4.772-10.538
		c0-4.078-1.78-7.907-4.778-10.541c3.964-4.218,8.563-7.759,12.693-7.759c0.574,0,1.159,0.076,1.749,0.206
		c3.316,7.785,12.408,14.703,17.463,18.095c-5.055,3.391-14.146,10.308-17.463,18.093
		C241.747,259.978,241.163,260.055,240.588,260.055z M264.358,286.17c-1.448-0.926-3.976-2.618-6.696-4.788
		c1.696-1.862,4.12-2.964,6.696-2.964c2.574,0,4.999,1.101,6.693,2.964C268.332,283.552,265.806,285.243,264.358,286.17z
		 M274.895,278.214c-2.634-2.996-6.462-4.774-10.536-4.774s-7.902,1.778-10.537,4.774c-4.221-3.967-7.763-8.564-7.763-12.686
		c0-0.575,0.077-1.16,0.206-1.751c7.783-3.317,14.701-12.407,18.093-17.462c3.392,5.055,10.31,14.145,18.093,17.462
		c0.131,0.591,0.207,1.176,0.207,1.751C282.657,269.65,279.114,274.247,274.895,278.214z M303.983,235.061
		c2.171,2.721,3.863,5.247,4.789,6.694c-0.926,1.448-2.617,3.975-4.789,6.697c-1.861-1.696-2.962-4.121-2.962-6.697
		C301.022,239.18,302.122,236.756,303.983,235.061z M288.128,223.455c4.124,0,8.723,3.543,12.688,7.763
		c-2.995,2.634-4.773,6.461-4.773,10.537s1.78,7.906,4.776,10.542c-3.964,4.218-8.561,7.758-12.691,7.758
		c-0.574,0-1.16-0.076-1.749-0.206c-3.317-7.785-12.408-14.702-17.462-18.093c5.055-3.392,14.147-10.311,17.463-18.096
		C286.97,223.531,287.554,223.455,288.128,223.455z M282.45,219.733c-7.783,3.316-14.701,12.407-18.093,17.462
		c-3.392-5.055-10.309-14.145-18.094-17.462c-0.129-0.59-0.205-1.174-0.205-1.748c0-4.123,3.542-8.721,7.761-12.688
		c2.635,2.994,6.463,4.772,10.539,4.772c4.078,0,7.906-1.78,10.541-4.777c4.217,3.964,7.758,8.562,7.758,12.692
		C282.657,218.56,282.581,219.144,282.45,219.733z"/>
	<path d="M134.881,189.879l1.263,0.743l1.263-0.743c2.254-1.326,22.016-13.318,22.016-25.862c0-0.172-0.018-0.344-0.024-0.516
		c0.172,0.007,0.344,0.024,0.517,0.024c12.543,0,24.535-19.762,25.861-22.016l0.743-1.263l-0.743-1.263
		c-1.326-2.254-13.318-22.016-25.861-22.016c-0.173,0-0.345,0.018-0.517,0.024c0.007-0.172,0.024-0.345,0.024-0.518
		c0-12.543-19.763-24.534-22.016-25.859l-1.263-0.743l-1.263,0.743c-2.253,1.326-22.015,13.316-22.015,25.859
		c0,0.173,0.018,0.346,0.025,0.518c-0.173-0.007-0.345-0.024-0.518-0.024c-12.543,0-24.534,19.763-25.86,22.016l-0.743,1.263
		l0.743,1.263c1.326,2.253,13.317,22.016,25.86,22.016c0.173,0,0.345-0.018,0.518-0.024c-0.008,0.172-0.025,0.344-0.025,0.516
		C112.866,176.561,132.628,188.553,134.881,189.879z M136.144,184.661c-1.447-0.926-3.975-2.617-6.694-4.788
		c1.694-1.861,4.118-2.961,6.694-2.961s5.001,1.101,6.696,2.962C140.118,182.044,137.592,183.735,136.144,184.661z M175.77,133.552
		c2.17,2.722,3.86,5.248,4.786,6.695c-0.926,1.448-2.617,3.975-4.788,6.696c-1.86-1.695-2.961-4.12-2.961-6.696
		C172.808,137.673,173.908,135.249,175.77,133.552z M159.914,121.947c4.124,0,8.722,3.543,12.689,7.763
		c-2.995,2.636-4.773,6.464-4.773,10.537c0,4.077,1.779,7.907,4.777,10.542c-3.965,4.218-8.562,7.758-12.692,7.758
		c-0.574,0-1.159-0.076-1.749-0.206c-3.316-7.783-12.408-14.701-17.463-18.094c5.055-3.391,14.145-10.309,17.463-18.094
		C158.755,122.023,159.339,121.947,159.914,121.947z M136.145,95.832c1.446,0.924,3.969,2.613,6.694,4.789
		c-1.696,1.862-4.12,2.963-6.695,2.963s-4.998-1.101-6.694-2.962C132.171,98.45,134.697,96.758,136.145,95.832z M125.606,103.788
		c2.635,2.996,6.463,4.774,10.537,4.774c4.076,0,7.906-1.78,10.541-4.778c4.219,3.964,7.759,8.561,7.759,12.691
		c0,0.574-0.077,1.16-0.206,1.75c-7.785,3.317-14.701,12.407-18.093,17.462c-3.392-5.055-10.31-14.145-18.093-17.462
		c-0.131-0.59-0.207-1.176-0.207-1.75C117.845,112.352,121.388,107.755,125.606,103.788z M96.519,146.943
		c-2.172-2.722-3.863-5.248-4.789-6.696c0.926-1.447,2.618-3.974,4.789-6.695c1.861,1.697,2.962,4.121,2.962,6.695
		C99.48,142.822,98.38,145.246,96.519,146.943z M112.374,158.547c-4.124,0-8.721-3.543-12.688-7.762
		c2.994-2.636,4.772-6.464,4.772-10.538c0-4.076-1.78-7.906-4.777-10.541c3.964-4.218,8.562-7.759,12.692-7.759
		c0.574,0,1.159,0.076,1.749,0.206c3.317,7.785,12.408,14.703,17.462,18.094c-5.055,3.393-14.146,10.311-17.463,18.095
		C113.532,158.471,112.948,158.547,112.374,158.547z M118.051,162.269c7.784-3.316,14.702-12.407,18.094-17.462
		c3.392,5.055,10.309,14.145,18.093,17.462c0.129,0.59,0.206,1.174,0.206,1.748c0,4.125-3.543,8.723-7.763,12.689
		c-2.633-2.994-6.461-4.773-10.537-4.773s-7.903,1.778-10.537,4.773c-4.219-3.967-7.762-8.564-7.762-12.689
		C117.845,163.442,117.921,162.858,118.051,162.269z"/>
	<path d="M159.422,265.527c0-0.173-0.018-0.347-0.024-0.519c0.172,0.007,0.344,0.024,0.517,0.024
		c12.543,0,24.535-19.762,25.861-22.016l0.743-1.263l-0.743-1.263c-1.326-2.254-13.318-22.016-25.861-22.016
		c-0.173,0-0.345,0.018-0.517,0.024c0.007-0.172,0.024-0.344,0.024-0.516c0-12.543-19.762-24.535-22.016-25.861l-1.263-0.743
		l-1.263,0.743c-2.253,1.326-22.015,13.318-22.015,25.861c0,0.172,0.018,0.344,0.025,0.516c-0.173-0.007-0.345-0.024-0.518-0.024
		c-12.543,0-24.534,19.763-25.86,22.016l-0.743,1.263l0.743,1.263c1.326,2.253,13.317,22.016,25.86,22.016
		c0.173,0,0.345-0.018,0.518-0.024c-0.008,0.172-0.025,0.346-0.025,0.519c0,12.54,19.762,24.532,22.015,25.858l1.263,0.743
		l1.263-0.743C139.66,290.06,159.422,278.067,159.422,265.527z M175.769,235.061c2.172,2.721,3.863,5.247,4.789,6.694
		c-0.924,1.446-2.612,3.969-4.787,6.696c-1.862-1.696-2.963-4.121-2.963-6.697S173.908,236.756,175.769,235.061z M159.914,223.455
		c4.124,0,8.722,3.544,12.689,7.764c-2.994,2.633-4.773,6.461-4.773,10.536c0,4.077,1.779,7.908,4.777,10.543
		c-3.965,4.217-8.563,7.757-12.692,7.757c-0.575,0-1.159-0.076-1.749-0.206c-3.317-7.785-12.408-14.702-17.463-18.093
		c5.055-3.392,14.146-10.31,17.463-18.095C158.755,223.531,159.34,223.455,159.914,223.455z M136.144,197.341
		c1.448,0.926,3.975,2.618,6.696,4.79c-1.696,1.861-4.12,2.961-6.696,2.961c-2.575,0-4.999-1.1-6.694-2.961
		C132.169,199.96,134.696,198.267,136.144,197.341z M125.606,205.298c2.634,2.994,6.461,4.772,10.537,4.772
		c4.078,0,7.908-1.78,10.541-4.776c4.219,3.964,7.759,8.561,7.759,12.691c0,0.574-0.077,1.158-0.206,1.748
		c-7.783,3.316-14.701,12.407-18.093,17.462c-3.393-5.055-10.311-14.145-18.095-17.462c-0.129-0.59-0.205-1.174-0.205-1.748
		C117.845,213.861,121.388,209.265,125.606,205.298z M96.519,248.452c-2.172-2.723-3.863-5.249-4.789-6.697
		c0.926-1.447,2.618-3.974,4.789-6.693c1.861,1.694,2.962,4.118,2.962,6.693C99.48,244.331,98.38,246.756,96.519,248.452z
		 M112.374,260.055c-4.123,0-8.721-3.542-12.688-7.762c2.994-2.636,4.772-6.464,4.772-10.538c0-4.078-1.78-7.907-4.778-10.541
		c3.965-4.218,8.563-7.759,12.693-7.759c0.574,0,1.158,0.076,1.748,0.206c3.316,7.785,12.408,14.703,17.463,18.095
		c-5.054,3.391-14.145,10.308-17.462,18.093C113.533,259.978,112.948,260.055,112.374,260.055z M136.144,286.169
		c-1.447-0.926-3.975-2.617-6.694-4.787c1.695-1.863,4.119-2.964,6.694-2.964s5,1.101,6.695,2.964
		C140.118,283.552,137.592,285.244,136.144,286.169z M146.681,278.214c-2.635-2.996-6.463-4.774-10.537-4.774
		s-7.902,1.778-10.536,4.774c-4.22-3.967-7.763-8.564-7.763-12.686c0-0.575,0.076-1.16,0.207-1.751
		c7.783-3.317,14.701-12.407,18.093-17.462c3.392,5.055,10.309,14.145,18.093,17.462c0.129,0.591,0.206,1.176,0.206,1.751
		C154.443,269.65,150.9,274.247,146.681,278.214z"/>
	<path d="M200.224,141.622l-1.263-0.743l-1.263,0.743c-2.253,1.325-22.017,13.314-22.017,25.859c0,0.172,0.017,0.344,0.024,0.516
		c-0.172-0.008-0.343-0.025-0.515-0.025c-12.545,0-24.536,19.765-25.862,22.019l-0.742,1.263l0.742,1.263
		c1.326,2.253,13.317,22.016,25.862,22.016c0.172,0,0.343-0.018,0.515-0.024c-0.008,0.172-0.024,0.344-0.024,0.516
		c0,12.544,19.763,24.535,22.017,25.861l1.263,0.743l1.263-0.743c2.254-1.326,22.017-13.317,22.017-25.861
		c0-0.172-0.018-0.344-0.024-0.516c0.172,0.007,0.344,0.024,0.516,0.024c12.544,0,24.535-19.763,25.86-22.016l0.743-1.263
		l-0.743-1.263c-1.325-2.254-13.316-22.019-25.86-22.019c-0.172,0-0.344,0.018-0.516,0.025c0.007-0.172,0.024-0.344,0.024-0.516
		C222.24,154.936,202.477,142.947,200.224,141.622z M198.962,146.837c1.445,0.924,3.968,2.614,6.695,4.79
		c-1.696,1.862-4.121,2.963-6.696,2.963s-5-1.101-6.696-2.963C194.985,149.455,197.514,147.763,198.962,146.837z M188.422,154.794
		c2.635,2.995,6.464,4.774,10.539,4.774c4.077,0,7.908-1.78,10.543-4.778c4.218,3.963,7.758,8.561,7.758,12.691
		c0,0.574-0.077,1.157-0.206,1.746c-7.783,3.317-14.703,12.409-18.095,17.465c-3.393-5.056-10.312-14.148-18.095-17.465
		c-0.13-0.589-0.206-1.172-0.206-1.746C180.66,163.357,184.202,158.76,188.422,154.794z M159.337,197.948
		c-2.172-2.722-3.864-5.248-4.79-6.696c0.924-1.445,2.613-3.969,4.79-6.695c1.86,1.695,2.961,4.12,2.961,6.696
		C162.298,193.828,161.197,196.252,159.337,197.948z M175.191,209.553c-4.124,0-8.722-3.543-12.688-7.762
		c2.994-2.634,4.773-6.463,4.773-10.538c0-4.076-1.778-7.905-4.773-10.539c3.967-4.221,8.564-7.764,12.688-7.764
		c0.573,0,1.157,0.076,1.746,0.205c3.316,7.786,12.409,14.706,17.464,18.098c-5.054,3.391-14.146,10.309-17.463,18.094
		C176.349,209.477,175.765,209.553,175.191,209.553z M198.961,235.666c-1.448-0.926-3.976-2.618-6.696-4.788
		c1.695-1.861,4.119-2.962,6.696-2.962c2.575,0,5.001,1.1,6.696,2.961C202.936,233.048,200.408,234.74,198.961,235.666z
		 M209.5,227.71c-2.634-2.994-6.464-4.773-10.539-4.773c-4.078,0-7.909,1.78-10.543,4.777c-4.218-3.964-7.758-8.562-7.758-12.692
		c0-0.574,0.076-1.158,0.206-1.747c7.783-3.316,14.702-12.407,18.094-17.462c3.393,5.055,10.313,14.145,18.097,17.462
		c0.128,0.589,0.205,1.173,0.205,1.747C217.262,219.146,213.72,223.744,209.5,227.71z M238.587,184.557
		c2.17,2.722,3.862,5.248,4.788,6.696c-0.926,1.448-2.618,3.975-4.788,6.695c-1.862-1.695-2.963-4.119-2.963-6.695
		C235.624,188.677,236.725,186.253,238.587,184.557z M222.732,172.95c4.125,0,8.723,3.543,12.688,7.764
		c-2.994,2.634-4.774,6.463-4.774,10.539c0,4.078,1.78,7.908,4.777,10.542c-3.963,4.218-8.561,7.758-12.691,7.758
		c-0.574,0-1.158-0.076-1.748-0.206c-3.316-7.784-12.409-14.703-17.463-18.094c5.055-3.392,14.148-10.312,17.464-18.097
		C221.573,173.026,222.157,172.95,222.732,172.95z"/>
	<path d="M175.191,113.022c0.172,0,0.343-0.018,0.515-0.025c-0.008,0.172-0.024,0.344-0.024,0.516
		c0,12.543,19.763,24.536,22.017,25.862l1.263,0.743l1.263-0.743c2.254-1.326,22.017-13.319,22.017-25.862
		c0-0.172-0.018-0.344-0.024-0.516c0.172,0.008,0.344,0.025,0.516,0.025c12.544,0,24.535-19.765,25.86-22.019l0.743-1.263
		l-0.743-1.263c-1.327-2.253-13.316-22.011-25.86-22.011c-0.172,0-0.344,0.018-0.517,0.025c0.008-0.174,0.025-0.347,0.025-0.521
		c0-12.539-19.763-24.535-22.017-25.862l-1.263-0.743l-1.263,0.743c-2.254,1.327-22.017,13.323-22.017,25.862
		c0,0.174,0.017,0.347,0.025,0.521c-0.173-0.008-0.344-0.025-0.516-0.025c-12.545,0-24.536,19.758-25.862,22.011l-0.742,1.263
		l0.742,1.263C150.655,93.258,162.646,113.022,175.191,113.022z M198.96,134.158c-1.445-0.924-3.969-2.613-6.695-4.789
		c1.695-1.862,4.119-2.963,6.696-2.963c2.575,0,5.001,1.101,6.696,2.963C202.935,131.54,200.408,133.232,198.96,134.158z
		 M209.499,126.201c-2.635-2.995-6.463-4.773-10.538-4.773c-4.078,0-7.907,1.78-10.542,4.778c-4.218-3.965-7.759-8.563-7.759-12.693
		c0-0.574,0.076-1.157,0.206-1.746c7.783-3.316,14.702-12.409,18.095-17.465c3.392,5.056,10.312,14.148,18.096,17.465
		c0.128,0.589,0.205,1.172,0.205,1.746C217.262,117.637,213.719,122.234,209.499,126.201z M238.587,83.047
		c2.171,2.721,3.863,5.247,4.789,6.695c-0.924,1.446-2.613,3.97-4.789,6.696c-1.862-1.696-2.963-4.122-2.963-6.697
		C235.624,87.168,236.725,84.744,238.587,83.047z M222.732,71.446c4.124,0,8.721,3.541,12.688,7.759
		c-2.995,2.636-4.774,6.464-4.774,10.536c0,4.077,1.78,7.908,4.778,10.543c-3.964,4.219-8.562,7.76-12.692,7.76
		c-0.574,0-1.158-0.076-1.748-0.206c-3.316-7.783-12.407-14.702-17.462-18.095c5.054-3.392,14.144-10.308,17.46-18.091
		C221.572,71.522,222.157,71.446,222.732,71.446z M198.961,45.33c1.448,0.926,3.975,2.617,6.696,4.787
		c-1.695,1.862-4.121,2.963-6.696,2.963c-2.577,0-5.001-1.101-6.696-2.963C194.985,47.947,197.513,46.256,198.961,45.33z
		 M188.423,53.285c2.634,2.995,6.463,4.773,10.538,4.773c4.077,0,7.908-1.78,10.542-4.777c4.218,3.965,7.759,8.562,7.759,12.691
		c0,0.575-0.077,1.161-0.206,1.751c-7.785,3.316-14.703,12.404-18.096,17.457c-3.392-5.053-10.311-14.141-18.094-17.457
		c-0.129-0.591-0.206-1.176-0.206-1.751C180.66,61.85,184.202,57.253,188.423,53.285z M175.191,71.446
		c0.573,0,1.157,0.076,1.748,0.206c3.317,7.783,12.406,14.699,17.461,18.091c-5.055,3.393-14.146,10.313-17.463,18.096
		c-0.589,0.129-1.173,0.205-1.746,0.205c-4.126,0-8.724-3.543-12.689-7.764c2.995-2.636,4.774-6.465,4.774-10.539
		c0-4.075-1.779-7.904-4.777-10.54C166.463,74.985,171.06,71.446,175.191,71.446z M159.335,83.046
		c1.862,1.697,2.963,4.121,2.963,6.695c0,2.574-1.101,4.999-2.963,6.696c-2.171-2.722-3.862-5.249-4.788-6.696
		C155.471,88.295,157.159,85.772,159.335,83.046z"/>
	<path d="M222.732,269.482c-0.172,0-0.344,0.017-0.516,0.025c0.007-0.172,0.024-0.344,0.024-0.516
		c0-12.543-19.763-24.536-22.017-25.862l-1.263-0.743l-1.263,0.743c-2.254,1.326-22.017,13.319-22.017,25.862
		c0,0.172,0.017,0.344,0.024,0.516c-0.172-0.008-0.343-0.025-0.515-0.025c-12.545,0-24.536,19.763-25.862,22.017l-0.742,1.263
		l0.742,1.263c1.326,2.253,13.317,22.012,25.862,22.012c0.172,0,0.343-0.018,0.516-0.024c-0.009,0.174-0.025,0.348-0.025,0.522
		c0,12.539,19.763,24.532,22.017,25.858l1.263,0.743l1.263-0.743c2.254-1.326,22.017-13.319,22.017-25.858
		c0-0.175-0.018-0.349-0.025-0.522c0.173,0.007,0.345,0.024,0.517,0.024c12.544,0,24.533-19.759,25.86-22.012l0.743-1.263
		l-0.743-1.263C247.267,289.245,235.275,269.482,222.732,269.482z M198.962,248.346c1.445,0.924,3.968,2.613,6.695,4.789
		c-1.695,1.861-4.121,2.961-6.696,2.961c-2.577,0-5.001-1.1-6.696-2.961C194.985,250.964,197.514,249.271,198.962,248.346z
		 M188.423,256.303c2.635,2.993,6.463,4.771,10.538,4.771c4.077,0,7.907-1.779,10.542-4.776c4.218,3.965,7.759,8.563,7.759,12.693
		c0,0.574-0.077,1.157-0.206,1.746c-7.783,3.316-14.703,12.408-18.096,17.463c-3.392-5.055-10.311-14.146-18.095-17.463
		c-0.13-0.589-0.205-1.172-0.205-1.746C180.66,264.867,184.202,260.27,188.423,256.303z M159.337,299.457
		c-2.173-2.723-3.864-5.249-4.79-6.697c0.924-1.445,2.613-3.969,4.79-6.694c1.86,1.696,2.961,4.12,2.961,6.695
		C162.298,295.335,161.197,297.76,159.337,299.457z M175.191,311.057c-4.124,0-8.722-3.541-12.687-7.759
		c2.994-2.636,4.771-6.464,4.771-10.537c0-4.076-1.78-7.907-4.778-10.542c3.964-4.218,8.562-7.759,12.693-7.759
		c0.573,0,1.157,0.076,1.747,0.205c3.316,7.784,12.408,14.703,17.463,18.096c-5.055,3.391-14.143,10.306-17.461,18.09
		C176.351,310.98,175.765,311.057,175.191,311.057z M198.961,337.174c-1.448-0.926-3.976-2.617-6.696-4.787
		c1.695-1.862,4.119-2.963,6.696-2.963c2.575,0,5.001,1.101,6.696,2.963C202.936,334.557,200.409,336.248,198.961,337.174z
		 M209.499,329.219c-2.634-2.995-6.463-4.773-10.538-4.773c-4.077,0-7.909,1.78-10.542,4.777c-4.218-3.964-7.759-8.561-7.759-12.689
		c0-0.576,0.077-1.163,0.206-1.755c7.783-3.315,14.702-12.404,18.094-17.457c3.393,5.053,10.31,14.141,18.095,17.457
		c0.13,0.592,0.207,1.179,0.207,1.755C217.262,320.655,213.719,325.253,209.499,329.219z M235.418,303.298
		c-3.966,4.218-8.563,7.759-12.686,7.759c-0.574,0-1.16-0.076-1.75-0.206c-3.318-7.784-12.407-14.699-17.461-18.09
		c5.055-3.393,14.148-10.313,17.464-18.096c0.589-0.129,1.173-0.205,1.747-0.205c4.124,0,8.721,3.543,12.688,7.763
		c-2.994,2.636-4.774,6.464-4.774,10.538C230.645,296.833,232.423,300.662,235.418,303.298z M238.587,299.457
		c-1.862-1.697-2.963-4.122-2.963-6.696c0-2.574,1.101-4.999,2.963-6.695c2.17,2.722,3.862,5.248,4.789,6.696
		C242.45,294.207,240.762,296.73,238.587,299.457z"/>
	<path d="M24.251,0v36h31.02v364.502h289.961V36h31.02V0H24.251z M306.938,36c0.767,1.095,1.392,2.042,1.836,2.737
		c-0.925,1.446-2.613,3.97-4.789,6.696c-1.862-1.697-2.963-4.122-2.963-6.697c0-0.942,0.15-1.862,0.429-2.736H306.938z M296.315,36
		c-0.178,0.892-0.272,1.808-0.272,2.736c0,4.074,1.778,7.903,4.772,10.538c-3.967,4.221-8.563,7.764-12.688,7.764
		c-0.574,0-1.16-0.076-1.749-0.206c-3.321-7.792-12.427-14.717-17.478-18.104c1.097-0.743,2.397-1.664,3.795-2.728H296.315z
		 M264.358,70.423c-4.077,0-7.908,1.78-10.542,4.778c-4.218-3.964-7.758-8.562-7.758-12.692c0-0.574,0.076-1.159,0.206-1.749
		c7.783-3.317,14.701-12.408,18.093-17.463c3.392,5.055,10.31,14.146,18.093,17.463c0.131,0.59,0.207,1.175,0.207,1.749
		c0,4.124-3.543,8.722-7.762,12.687C272.261,72.202,268.433,70.423,264.358,70.423z M271.052,78.364
		c-2.72,2.17-5.246,3.861-6.693,4.788c-1.448-0.926-3.976-2.618-6.696-4.788c1.696-1.862,4.12-2.963,6.696-2.963
		C266.933,75.401,269.357,76.502,271.052,78.364z M256.021,36c1.397,1.063,2.698,1.984,3.795,2.728
		c-5.051,3.388-14.158,10.313-17.479,18.104c-0.59,0.13-1.174,0.206-1.749,0.206c-4.124,0-8.722-3.543-12.689-7.764
		c2.995-2.636,4.773-6.465,4.773-10.538c0-0.929-0.094-1.845-0.272-2.736H256.021z M227.265,36c0.279,0.874,0.43,1.794,0.43,2.736
		c0,2.574-1.101,4.999-2.963,6.696c-2.17-2.722-3.861-5.249-4.786-6.696c0.443-0.694,1.067-1.642,1.833-2.736H227.265z M178.723,36
		c0.766,1.095,1.391,2.042,1.835,2.736c-0.926,1.448-2.617,3.975-4.787,6.697c-1.862-1.697-2.963-4.122-2.963-6.697
		c0-0.942,0.15-1.862,0.429-2.736H178.723z M168.101,36c-0.178,0.892-0.271,1.808-0.271,2.736c0,4.075,1.778,7.903,4.773,10.538
		c-3.967,4.221-8.564,7.764-12.689,7.764c-0.575,0-1.159-0.076-1.749-0.206c-3.32-7.792-12.428-14.717-17.479-18.104
		c1.096-0.743,2.398-1.664,3.795-2.728H168.101z M136.144,70.423c-4.078,0-7.906,1.78-10.541,4.778
		c-4.217-3.964-7.758-8.562-7.758-12.692c0-0.574,0.076-1.159,0.206-1.749c7.784-3.317,14.702-12.408,18.094-17.463
		c3.392,5.055,10.309,14.146,18.093,17.463c0.129,0.59,0.206,1.175,0.206,1.749c0,4.124-3.542,8.721-7.763,12.687
		C144.047,72.201,140.219,70.423,136.144,70.423z M142.839,78.364c-2.721,2.17-5.247,3.862-6.695,4.787
		c-1.447-0.926-3.975-2.617-6.694-4.787c1.695-1.862,4.119-2.963,6.694-2.963S141.144,76.502,142.839,78.364z M127.806,36
		c1.396,1.063,2.698,1.984,3.795,2.728c-5.051,3.388-14.157,10.313-17.478,18.105c-0.59,0.129-1.175,0.205-1.749,0.205
		c-4.124,0-8.722-3.543-12.688-7.764c2.994-2.636,4.772-6.464,4.772-10.538c0-0.929-0.095-1.845-0.272-2.736H127.806z M99.052,36
		c0.278,0.874,0.429,1.794,0.429,2.736c0,2.575-1.101,4.999-2.964,6.697c-2.17-2.723-3.862-5.25-4.787-6.697
		c0.443-0.694,1.068-1.642,1.834-2.736H99.052z M107.059,100.28c-3.966,4.221-8.563,7.764-12.688,7.764
		c-0.574,0-1.159-0.076-1.749-0.206c-3.292-7.728-12.276-14.603-17.352-18.021V89.67c5.075-3.417,14.057-10.291,17.351-18.018
		c0.591-0.13,1.175-0.206,1.75-0.206c4.124,0,8.721,3.541,12.687,7.76c-2.994,2.636-4.773,6.463-4.773,10.535
		C102.284,93.815,104.063,97.645,107.059,100.28z M75.271,122.232v-21.651c3.608,4.371,8.33,9.014,13.424,11.185
		c0.13,0.589,0.206,1.173,0.206,1.747c0,4.124-3.544,8.722-7.763,12.688C79.548,124.394,77.522,123.03,75.271,122.232z
		 M77.296,129.369c-0.693,0.553-1.372,1.073-2.025,1.559v-3.214C76.017,128.165,76.702,128.718,77.296,129.369z M88.693,67.725
		c-5.093,2.17-9.814,6.812-13.423,11.179V57.254c2.252-0.797,4.277-2.161,5.867-3.968c4.219,3.967,7.763,8.564,7.763,12.687
		C88.9,66.548,88.823,67.134,88.693,67.725z M75.271,51.772v-3.215c0.653,0.486,1.332,1.006,2.026,1.56
		C76.704,50.769,76.017,51.322,75.271,51.772z M107.063,201.795c-3.965,4.218-8.562,7.758-12.692,7.758
		c-0.574,0-1.159-0.076-1.749-0.206c-3.292-7.727-12.275-14.602-17.352-18.02v-0.148c5.076-3.418,14.061-10.295,17.353-18.022
		c0.59-0.13,1.174-0.206,1.748-0.206c4.124,0,8.722,3.543,12.688,7.764c-2.996,2.634-4.775,6.463-4.775,10.539
		C102.284,195.331,104.065,199.161,107.063,201.795z M75.271,223.742v-21.65c3.608,4.37,8.33,9.013,13.424,11.183
		c0.13,0.59,0.206,1.174,0.206,1.748c0,4.124-3.543,8.722-7.763,12.688C79.548,225.902,77.523,224.539,75.271,223.742z
		 M77.296,230.878c-0.693,0.553-1.372,1.072-2.025,1.558v-3.213C76.017,229.673,76.702,230.227,77.296,230.878z M88.694,169.229
		c-5.094,2.171-9.815,6.814-13.424,11.185v-21.65c2.252-0.797,4.277-2.16,5.867-3.969c4.22,3.967,7.763,8.563,7.763,12.688
		C88.9,168.056,88.824,168.64,88.694,169.229z M75.271,153.282v-3.216c0.652,0.486,1.332,1.007,2.025,1.561
		C76.702,152.278,76.017,152.832,75.271,153.282z M107.062,303.302c-3.963,4.216-8.561,7.755-12.69,7.755
		c-0.575,0-1.16-0.076-1.751-0.206c-3.294-7.727-12.275-14.6-17.35-18.017v-0.148c5.076-3.418,14.061-10.295,17.353-18.021
		c0.589-0.129,1.174-0.205,1.748-0.205c4.124,0,8.722,3.543,12.688,7.764c-2.995,2.635-4.774,6.463-4.774,10.537
		C102.284,296.835,104.064,300.665,107.062,303.302z M75.271,325.25v-21.651c3.608,4.368,8.33,9.01,13.424,11.18
		c0.129,0.592,0.206,1.178,0.206,1.755c0,4.122-3.543,8.719-7.763,12.685C79.548,327.411,77.522,326.047,75.271,325.25z
		 M77.296,332.387c-0.693,0.553-1.372,1.072-2.025,1.559v-3.214C76.017,331.183,76.702,331.735,77.296,332.387z M88.694,270.738
		c-5.094,2.171-9.815,6.813-13.424,11.183V260.27c2.252-0.797,4.277-2.16,5.867-3.967c4.219,3.967,7.763,8.564,7.763,12.688
		C88.9,269.565,88.824,270.149,88.694,270.738z M75.271,254.788v-3.213c0.652,0.485,1.332,1.005,2.025,1.559
		C76.702,253.785,76.017,254.339,75.271,254.788z M75.271,353.669c0.652,0.485,1.332,1.005,2.025,1.559
		c-0.594,0.651-1.279,1.205-2.025,1.654V353.669z M88.694,372.827c-3.281,1.393-6.707,3.957-10.255,7.675h-3.169v-18.139
		c2.254-0.797,4.28-2.162,5.871-3.972c4.218,3.965,7.759,8.563,7.759,12.693C88.9,371.646,88.826,372.228,88.694,372.827z
		 M90.557,380.502c0.849-1.267,1.54-2.513,2.062-3.737c0.604-0.135,1.19-0.211,1.753-0.211c2.515,0,5.456,1.366,8.636,3.948H90.557z
		 M135.034,380.502c0.366-0.046,0.734-0.075,1.109-0.075c0.373,0,0.744,0.029,1.109,0.075H135.034z M146.677,380.219
		c-2.634-2.993-6.461-4.771-10.533-4.771c-4.074,0-7.898,1.777-10.532,4.771c-5.005-4.71-7.767-9.155-7.767-12.686
		c0-0.574,0.076-1.159,0.206-1.749c7.784-3.316,14.702-12.405,18.094-17.459c3.392,5.054,10.309,14.144,18.093,17.459
		c0.129,0.59,0.206,1.175,0.206,1.749C154.443,371.064,151.681,375.509,146.677,380.219z M99.687,333.228
		c3.967-4.221,8.563-7.764,12.688-7.764c0.574,0,1.159,0.076,1.749,0.206c3.317,7.783,12.406,14.702,17.46,18.095
		c-5.055,3.392-14.144,10.309-17.461,18.092c-0.59,0.13-1.174,0.206-1.748,0.206c-4.124,0-8.721-3.542-12.688-7.761
		c2.994-2.635,4.772-6.463,4.772-10.536C104.459,339.691,102.681,335.862,99.687,333.228z M136.144,312.079
		c4.077,0,7.907-1.78,10.541-4.778c4.219,3.964,7.759,8.561,7.759,12.692c0,0.574-0.077,1.159-0.206,1.749
		c-7.783,3.317-14.701,12.408-18.093,17.463c-3.392-5.055-10.311-14.146-18.095-17.463c-0.129-0.59-0.205-1.175-0.205-1.749
		c0-4.124,3.543-8.722,7.762-12.688C128.241,310.3,132.069,312.079,136.144,312.079z M129.449,304.138
		c2.72-2.17,5.247-3.861,6.694-4.787c1.448,0.925,3.975,2.617,6.695,4.787c-1.695,1.862-4.12,2.963-6.695,2.963
		S131.145,306,129.449,304.138z M172.607,354.306c-3.965,4.217-8.562,7.757-12.692,7.757c-0.574,0-1.159-0.076-1.749-0.206
		c-3.316-7.783-12.406-14.7-17.461-18.092c5.055-3.393,14.145-10.312,17.461-18.095c0.59-0.13,1.174-0.206,1.749-0.206
		c4.124,0,8.722,3.543,12.689,7.764c-2.995,2.636-4.773,6.465-4.773,10.538C167.829,347.841,169.608,351.67,172.607,354.306z
		 M166.556,380.502c3.18-2.582,6.121-3.948,8.636-3.948c0.562,0,1.147,0.076,1.75,0.211c0.523,1.225,1.214,2.471,2.063,3.737
		H166.556z M217.056,372.826c-3.282,1.392-6.709,3.957-10.257,7.676h-15.675c-3.549-3.72-6.975-6.284-10.258-7.677
		c-0.133-0.598-0.206-1.18-0.206-1.74c0-4.124,3.542-8.723,7.763-12.689c2.634,2.994,6.463,4.772,10.538,4.772
		s7.904-1.778,10.538-4.772c4.22,3.967,7.763,8.565,7.763,12.689C217.262,371.646,217.188,372.228,217.056,372.826z
		 M192.265,355.228c2.721-2.171,5.249-3.863,6.697-4.789c1.445,0.924,3.968,2.613,6.695,4.789c-1.695,1.861-4.121,2.961-6.696,2.961
		C196.384,358.19,193.96,357.09,192.265,355.228z M218.917,380.502c0.85-1.267,1.54-2.513,2.063-3.737
		c0.602-0.135,1.189-0.211,1.751-0.211c2.515,0,5.455,1.366,8.635,3.948H218.917z M263.249,380.502
		c0.365-0.046,0.735-0.075,1.109-0.075s0.742,0.029,1.109,0.075H263.249z M274.891,380.219c-2.634-2.993-6.459-4.771-10.532-4.771
		c-4.073,0-7.899,1.777-10.533,4.771c-5.004-4.71-7.767-9.155-7.767-12.686c0-0.574,0.076-1.159,0.206-1.749
		c7.783-3.316,14.701-12.405,18.093-17.459c3.392,5.054,10.31,14.143,18.093,17.459c0.131,0.59,0.207,1.175,0.207,1.749
		C282.657,371.064,279.896,375.509,274.891,380.219z M227.899,333.228c3.967-4.221,8.564-7.764,12.689-7.764
		c0.575,0,1.159,0.076,1.749,0.206c3.316,7.783,12.406,14.702,17.461,18.095c-5.055,3.392-14.145,10.309-17.461,18.093
		c-0.59,0.129-1.175,0.205-1.749,0.205c-4.124,0-8.722-3.542-12.689-7.761c2.995-2.636,4.773-6.463,4.773-10.536
		C232.673,339.69,230.895,335.862,227.899,333.228z M264.358,312.079c4.077,0,7.906-1.78,10.541-4.778
		c4.217,3.964,7.758,8.561,7.758,12.692c0,0.574-0.076,1.159-0.207,1.749c-7.783,3.317-14.701,12.408-18.093,17.463
		c-3.392-5.055-10.309-14.146-18.093-17.463c-0.13-0.59-0.206-1.175-0.206-1.749c0-4.124,3.542-8.721,7.763-12.688
		C256.455,310.301,260.282,312.079,264.358,312.079z M257.662,304.138c2.721-2.17,5.248-3.862,6.696-4.788
		c1.447,0.927,3.974,2.618,6.693,4.788c-1.694,1.862-4.119,2.963-6.693,2.963C261.782,307.101,259.358,306,257.662,304.138z
		 M300.815,354.302c-3.967,4.219-8.563,7.761-12.688,7.761c-0.574,0-1.158-0.076-1.748-0.206
		c-3.316-7.783-12.406-14.7-17.461-18.092c5.054-3.393,14.143-10.312,17.46-18.096c0.589-0.129,1.175-0.205,1.749-0.205
		c4.124,0,8.721,3.543,12.688,7.764c-2.994,2.636-4.772,6.464-4.772,10.538C296.043,347.839,297.821,351.667,300.815,354.302z
		 M297.495,380.502c3.18-2.582,6.121-3.948,8.636-3.948c0.563,0,1.149,0.076,1.752,0.211c0.522,1.225,1.214,2.471,2.063,3.737
		H297.495z M325.232,380.502h-3.169c-3.548-3.718-6.974-6.282-10.255-7.675c-0.132-0.599-0.207-1.182-0.207-1.742
		c0-4.124,3.544-8.723,7.764-12.689c1.59,1.808,3.615,3.171,5.867,3.968V380.502z M325.232,356.88
		c-0.746-0.449-1.433-1.001-2.025-1.652c0.693-0.553,1.373-1.073,2.025-1.559V356.88z M325.232,333.946
		c-0.653-0.486-1.333-1.007-2.026-1.56c0.593-0.651,1.28-1.203,2.026-1.653V333.946z M325.232,325.25
		c-2.254,0.798-4.281,2.163-5.871,3.973c-4.218-3.964-7.76-8.56-7.76-12.689c0-0.576,0.078-1.163,0.209-1.755
		c5.092-2.17,9.814-6.811,13.422-11.18V325.25z M325.232,292.834c-5.074,3.417-14.056,10.289-17.35,18.017
		c-0.591,0.13-1.176,0.206-1.751,0.206c-4.124,0-8.72-3.541-12.686-7.759c2.995-2.637,4.773-6.465,4.773-10.537
		c0-4.074-1.779-7.902-4.775-10.537c3.967-4.221,8.564-7.764,12.688-7.764c0.574,0,1.159,0.076,1.749,0.206
		c3.291,7.727,12.275,14.603,17.352,18.021V292.834z M325.232,281.921c-3.609-4.369-8.331-9.013-13.425-11.184
		c-0.129-0.588-0.206-1.172-0.206-1.746c0-4.124,3.544-8.723,7.764-12.689c1.59,1.808,3.615,3.171,5.867,3.968V281.921z
		 M325.232,254.786c-0.746-0.449-1.433-1.001-2.025-1.652c0.693-0.553,1.373-1.073,2.025-1.559V254.786z M325.232,232.439
		c-0.652-0.486-1.332-1.007-2.026-1.561c0.593-0.651,1.279-1.203,2.026-1.653V232.439z M325.232,223.742
		c-2.253,0.797-4.277,2.161-5.868,3.969c-4.22-3.967-7.763-8.563-7.763-12.688c0-0.574,0.077-1.158,0.207-1.748
		c5.094-2.17,9.816-6.813,13.424-11.183V223.742z M325.232,191.327c-5.076,3.418-14.06,10.293-17.352,18.02
		c-0.59,0.13-1.175,0.206-1.749,0.206c-4.124,0-8.722-3.543-12.688-7.763c2.996-2.635,4.775-6.463,4.775-10.537
		c0-4.076-1.779-7.904-4.775-10.539c3.967-4.221,8.564-7.764,12.688-7.764c0.574,0,1.158,0.076,1.748,0.206
		c3.292,7.728,12.276,14.605,17.353,18.022V191.327z M325.232,180.413c-3.609-4.371-8.331-9.015-13.425-11.186
		c-0.129-0.588-0.206-1.172-0.206-1.746c0-4.125,3.543-8.722,7.763-12.688c1.591,1.808,3.616,3.172,5.868,3.969V180.413z
		 M325.232,153.28c-0.746-0.451-1.433-1.002-2.025-1.653c0.693-0.553,1.372-1.074,2.025-1.561V153.28z M325.232,130.931
		c-0.652-0.486-1.332-1.008-2.026-1.561c0.593-0.651,1.28-1.203,2.026-1.654V130.931z M325.232,122.232
		c-2.254,0.798-4.281,2.163-5.871,3.974c-4.218-3.965-7.76-8.563-7.76-12.693c0-0.574,0.077-1.158,0.207-1.747
		c5.094-2.171,9.816-6.813,13.424-11.185V122.232z M325.232,89.816c-5.075,3.419-14.06,10.294-17.352,18.021
		c-0.59,0.13-1.175,0.206-1.749,0.206c-4.124,0-8.722-3.544-12.688-7.764c2.996-2.637,4.775-6.466,4.775-10.539
		c0-4.074-1.78-7.903-4.778-10.539c3.964-4.217,8.561-7.756,12.691-7.756c0.575,0,1.159,0.076,1.75,0.206
		c3.294,7.727,12.275,14.601,17.351,18.018V89.816z M325.232,78.903c-3.608-4.368-8.33-9.01-13.424-11.18
		c-0.13-0.59-0.207-1.176-0.207-1.751c0-4.122,3.544-8.72,7.764-12.688c1.59,1.808,3.615,3.172,5.867,3.969V78.903z M325.232,51.771
		c-0.746-0.45-1.434-1.002-2.026-1.653c0.693-0.553,1.373-1.073,2.026-1.56V51.771z M325.232,42.276
		c-6.295,4.239-18.608,13.796-18.608,23.696c0,0.174,0.017,0.347,0.025,0.521c-0.173-0.008-0.345-0.025-0.518-0.025
		c-12.543,0-24.534,19.758-25.86,22.011l-0.743,1.263l0.743,1.263c1.326,2.254,13.317,22.019,25.86,22.019
		c0.173,0,0.345-0.018,0.517-0.025c-0.007,0.172-0.024,0.344-0.024,0.516c0,9.903,12.313,19.459,18.608,23.697v6.576
		c-6.295,4.237-18.608,13.791-18.608,23.695c0,0.172,0.017,0.344,0.024,0.516c-0.172-0.008-0.344-0.025-0.517-0.025
		c-12.543,0-24.534,19.765-25.86,22.019l-0.743,1.263l0.743,1.263c1.326,2.253,13.317,22.016,25.86,22.016
		c0.173,0,0.345-0.018,0.517-0.024c-0.007,0.172-0.024,0.344-0.024,0.516c0,9.904,12.313,19.459,18.608,23.696v6.575
		c-6.295,4.238-18.608,13.794-18.608,23.697c0,0.172,0.017,0.344,0.024,0.516c-0.172-0.008-0.344-0.025-0.517-0.025
		c-12.543,0-24.534,19.763-25.86,22.017l-0.743,1.263l0.743,1.263c1.326,2.253,13.317,22.012,25.86,22.012
		c0.173,0,0.345-0.018,0.518-0.024c-0.008,0.174-0.025,0.348-0.025,0.522c0,9.9,12.313,19.456,18.608,23.693v7.161
		c-6.295,4.238-18.608,13.794-18.608,23.697c0,0.17,0.015,0.344,0.022,0.515c-0.172-0.007-0.344-0.024-0.515-0.024
		c-5.691,0-11.308,4.137-15.911,8.927h-8.673c3.521-4.005,6.089-8.461,6.089-12.969c0-0.173-0.018-0.345-0.025-0.517
		c0.172,0.007,0.345,0.024,0.518,0.024c12.543,0,24.534-19.76,25.86-22.013l0.743-1.263l-0.743-1.263
		c-1.326-2.254-13.317-22.018-25.86-22.018c-0.173,0-0.346,0.018-0.518,0.025c0.008-0.173,0.025-0.345,0.025-0.518
		c0-12.543-19.762-24.535-22.015-25.861l-1.263-0.743l-1.263,0.743c-2.254,1.326-22.016,13.318-22.016,25.861
		c0,0.173,0.018,0.345,0.024,0.518c-0.172-0.008-0.344-0.025-0.517-0.025c-12.543,0-24.536,19.764-25.861,22.018l-0.743,1.263
		l0.743,1.263c1.325,2.253,13.318,22.013,25.861,22.013c0.173,0,0.345-0.017,0.517-0.024c-0.007,0.172-0.024,0.344-0.024,0.517
		c0,4.508,2.567,8.964,6.089,12.969h-8.504c-5.648-5.921-10.99-8.927-15.934-8.927c-0.17,0-0.343,0.018-0.514,0.024
		c0.008-0.171,0.022-0.345,0.022-0.515c0-12.543-19.763-24.536-22.017-25.862l-1.263-0.743l-1.263,0.743
		c-2.254,1.326-22.017,13.319-22.017,25.862c0,0.17,0.015,0.344,0.022,0.515c-0.171-0.007-0.343-0.024-0.513-0.024
		c-4.944,0-10.287,3.006-15.935,8.927h-5.924c3.522-4.005,6.089-8.461,6.089-12.969c0-0.173-0.018-0.345-0.024-0.517
		c0.172,0.007,0.344,0.024,0.517,0.024c12.543,0,24.535-19.76,25.861-22.013l0.743-1.263l-0.743-1.263
		c-1.326-2.254-13.318-22.018-25.861-22.018c-0.173,0-0.345,0.018-0.517,0.025c0.007-0.173,0.024-0.345,0.024-0.518
		c0-12.543-19.762-24.535-22.016-25.861l-1.263-0.743l-1.263,0.743c-2.253,1.326-22.015,13.318-22.015,25.861
		c0,0.173,0.018,0.345,0.025,0.518c-0.173-0.008-0.345-0.025-0.518-0.025c-12.543,0-24.534,19.764-25.86,22.018l-0.743,1.263
		l0.743,1.263c1.326,2.253,13.317,22.013,25.86,22.013c0.173,0,0.345-0.017,0.518-0.024c-0.008,0.172-0.025,0.344-0.025,0.517
		c0,4.508,2.566,8.964,6.089,12.969h-8.673c-4.604-4.79-10.22-8.927-15.911-8.927c-0.171,0-0.343,0.018-0.515,0.024
		c0.008-0.171,0.022-0.345,0.022-0.515c0-9.903-12.313-19.459-18.608-23.697v-7.161c6.295-4.237,18.608-13.793,18.608-23.693
		c0-0.175-0.018-0.349-0.026-0.522c0.174,0.007,0.346,0.024,0.519,0.024c12.543,0,24.534-19.759,25.86-22.012l0.743-1.263
		l-0.743-1.263c-1.326-2.254-13.317-22.017-25.86-22.017c-0.173,0-0.345,0.017-0.517,0.025c0.007-0.172,0.024-0.344,0.024-0.516
		c0-9.903-12.313-19.459-18.608-23.697v-6.575c6.295-4.237,18.608-13.792,18.608-23.696c0-0.172-0.018-0.344-0.024-0.516
		c0.172,0.007,0.344,0.024,0.517,0.024c12.543,0,24.534-19.763,25.86-22.016l0.743-1.263l-0.743-1.263
		c-1.326-2.254-13.317-22.019-25.86-22.019c-0.173,0-0.345,0.018-0.517,0.025c0.007-0.172,0.024-0.344,0.024-0.516
		c0-9.904-12.313-19.458-18.608-23.695v-6.576c6.295-4.238,18.608-13.794,18.608-23.697c0-0.172-0.018-0.344-0.024-0.516
		c0.172,0.008,0.344,0.025,0.517,0.025c12.543,0,24.534-19.765,25.86-22.019l0.743-1.263l-0.743-1.263
		c-1.326-2.253-13.317-22.011-25.86-22.011c-0.173,0-0.345,0.018-0.519,0.025c0.009-0.174,0.026-0.347,0.026-0.521
		c0-9.9-12.313-19.457-18.608-23.696V36h12.155c-0.536,0.839-0.854,1.376-0.912,1.474l-0.743,1.263l0.743,1.263
		c1.326,2.254,13.317,22.018,25.86,22.018c0.173,0,0.345-0.018,0.518-0.025c-0.008,0.173-0.025,0.345-0.025,0.518
		c0,12.543,19.762,24.535,22.015,25.861l1.263,0.743l1.263-0.743c2.254-1.326,22.016-13.318,22.016-25.861
		c0-0.173-0.018-0.345-0.024-0.518c0.172,0.008,0.344,0.025,0.517,0.025c12.543,0,24.535-19.764,25.861-22.018l0.743-1.263
		l-0.743-1.264c-0.058-0.097-0.376-0.634-0.912-1.473h30.775c-0.536,0.839-0.855,1.376-0.912,1.473l-0.743,1.264l0.743,1.263
		c1.325,2.254,13.318,22.018,25.861,22.018c0.173,0,0.345-0.018,0.517-0.025c-0.007,0.173-0.024,0.345-0.024,0.518
		c0,12.543,19.762,24.535,22.016,25.861l1.263,0.743l1.263-0.743c2.253-1.326,22.015-13.318,22.015-25.861
		c0-0.173-0.018-0.345-0.025-0.518c0.172,0.008,0.345,0.025,0.518,0.025c12.543,0,24.534-19.764,25.86-22.018l0.743-1.263
		l-0.743-1.263c-0.058-0.098-0.376-0.635-0.912-1.474h12.155V42.276z M293.239,89.741c0,2.574-1.102,4.999-2.964,6.696
		c-2.17-2.721-3.861-5.248-4.787-6.696c0.926-1.447,2.617-3.974,4.787-6.694C292.138,84.744,293.239,87.168,293.239,89.741z
		 M293.239,191.253c0,2.575-1.101,4.999-2.964,6.695c-2.17-2.722-3.861-5.248-4.787-6.695c0.926-1.448,2.617-3.975,4.788-6.696
		C292.139,186.253,293.239,188.677,293.239,191.253z M293.239,292.761c0,2.574-1.101,4.999-2.964,6.696
		c-2.17-2.722-3.861-5.249-4.787-6.696c0.926-1.447,2.617-3.975,4.787-6.695C292.139,287.762,293.239,290.186,293.239,292.761z
		 M301.022,343.766c0-2.575,1.101-4.999,2.963-6.697c2.171,2.722,3.863,5.249,4.789,6.697c-0.925,1.445-2.614,3.968-4.79,6.695
		C302.122,348.764,301.022,346.34,301.022,343.766z M227.694,343.766c0,2.574-1.101,4.998-2.962,6.694
		c-2.171-2.722-3.861-5.248-4.787-6.695c0.923-1.446,2.611-3.97,4.786-6.696C226.594,338.766,227.694,341.19,227.694,343.766z
		 M172.808,343.766c0-2.574,1.101-4.999,2.963-6.696c2.17,2.721,3.861,5.248,4.786,6.695c-0.926,1.448-2.617,3.974-4.788,6.695
		C173.908,348.764,172.808,346.34,172.808,343.766z M99.48,343.766c0,2.574-1.101,4.998-2.962,6.695
		c-2.172-2.723-3.863-5.249-4.789-6.696c0.924-1.446,2.612-3.97,4.787-6.696C98.38,338.766,99.48,341.19,99.48,343.766z
		 M107.263,292.761c0-2.574,1.101-4.999,2.963-6.695c2.171,2.722,3.863,5.248,4.789,6.696c-0.924,1.445-2.613,3.969-4.788,6.695
		C108.363,297.76,107.263,295.335,107.263,292.761z M107.263,191.253c0-2.576,1.101-5,2.963-6.696
		c2.171,2.722,3.862,5.248,4.788,6.696c-0.926,1.448-2.617,3.975-4.788,6.695C108.363,196.253,107.263,193.829,107.263,191.253z
		 M107.263,89.741c0-2.573,1.101-4.997,2.964-6.694c2.171,2.721,3.862,5.247,4.788,6.694c-0.926,1.448-2.618,3.976-4.789,6.697
		C108.363,94.741,107.263,92.316,107.263,89.741z"/>
</g>
<g>
</g>
<g>
</g>
<g>
</g>
<g>
</g>
<g>
</g>
<g>
</g>
<g>
</g>
<g>
</g>
<g>
</g>
<g>
</g>
<g>
</g>
<g>
</g>
<g>
</g>
<g>
</g>
<g>
</g>
</svg>
