<?xml version="1.0" encoding="iso-8859-1"?>
<!-- Generator: Adobe Illustrator 18.0.0, SVG Export Plug-In . SVG Version: 6.00 Build 0)  -->
<!DOCTYPE svg PUBLIC "-//W3C//DTD SVG 1.1//EN" "http://www.w3.org/Graphics/SVG/1.1/DTD/svg11.dtd">
<svg version="1.1" id="Capa_1" xmlns="http://www.w3.org/2000/svg" xmlns:xlink="http://www.w3.org/1999/xlink" x="0px" y="0px"
	 viewBox="0 0 297 297" style="enable-background:new 0 0 297 297;" xml:space="preserve">
<g>
	<path d="M283.04,0H13.96C8.502,0,4.077,4.425,4.077,9.884v277.233c0,5.458,4.425,9.884,9.884,9.884H283.04
		c5.458,0,9.884-4.425,9.884-9.884V9.884C292.923,4.425,288.498,0,283.04,0z M273.156,277.233H23.844V19.767h249.312V277.233z"/>
	<path d="M50.653,259.103h195.694c5.458,0,9.884-4.425,9.884-9.884V47.781c0-5.458-4.425-9.884-9.884-9.884H50.653
		c-5.458,0-9.884,4.425-9.884,9.884v201.439C40.77,254.677,45.195,259.103,50.653,259.103z M142.076,132.192V57.664h12.849v74.528
		c0,5.458,4.425,9.884,9.884,9.884h71.656v12.849h-71.656c-5.458,0-9.884,4.425-9.884,9.884v74.528h-12.849v-74.528
		c0-5.458-4.425-9.884-9.884-9.884H60.537v-12.849h71.656C137.65,142.076,142.076,137.65,142.076,132.192z M60.537,174.691h61.772
		v64.644H60.537V174.691z M174.691,239.336v-64.644h61.772v64.644H174.691z M236.463,122.309h-61.772V57.664h61.772V122.309z
		 M122.309,57.664v64.644H60.537V57.664H122.309z"/>
</g>
<g>
</g>
<g>
</g>
<g>
</g>
<g>
</g>
<g>
</g>
<g>
</g>
<g>
</g>
<g>
</g>
<g>
</g>
<g>
</g>
<g>
</g>
<g>
</g>
<g>
</g>
<g>
</g>
<g>
</g>
</svg>
