{
  "accessors": [
    {
      "bufferView": 1,
      "componentType": 5126,
      "count": 518,
      "max": [
        4.048542022705078,
        0.3940579891204834,
        5.203690052032471
      ],
      "min": [
        -2.7054810523986816,
        -0.3918220102787018,
        0.07378999888896942
      ],
      "type": "VEC3"
    },
    {
      "bufferView": 1,
      "byteOffset": 6216,
      "componentType": 5126,
      "count": 518,
      "max": [
        0.9906026124954224,
        0.9999950528144836,
        0.9999995231628418
      ],
      "min": [
        -0.9906027317047119,
        -0.9999950528144836,
        -0.9999995231628418
      ],
      "type": "VEC3"
    },
    {
      "bufferView": 0,
      "componentType": 5125,
      "count": 1272,
      "type": "SCALAR"
    }
  ],
  "asset": {
    "extras": {
      "author": "1-3D.com (https://sketchfab.com/1-3D.com)",
      "license": "CC-BY-SA-4.0 (http://creativecommons.org/licenses/by-sa/4.0/)",
      "source": "https://sketchfab.com/3d-models/rounded-edges-railing-241-3d7e06947d634467936b83db991c2104",
      "title": "Rounded edges railing 241"
    },
    "generator": "Sketchfab-12.73.0",
    "version": "2.0"
  },
  "bufferViews": [
    {
      "buffer": 0,
      "byteLength": 5088,
      "name": "floatBufferViews",
      "target": 34963
    },
    {
      "buffer": 0,
      "byteLength": 12432,
      "byteOffset": 5088,
      "byteStride": 12,
      "name": "floatBufferViews",
      "target": 34962
    }
  ],
  "buffers": [
    {
      "byteLength": 17520,
      "uri": "scene.bin"
    }
  ],
  "materials": [
    {
      "doubleSided": true,
      "name": "material_0",
      "pbrMetallicRoughness": {
        "metallicFactor": 0.0,
        "roughnessFactor": 0.6
      }
    }
  ],
  "meshes": [
    {
      "name": "Object_0",
      "primitives": [
        {
          "attributes": {
            "NORMAL": 1,
            "POSITION": 0
          },
          "indices": 2,
          "material": 0,
          "mode": 4
        }
      ]
    }
  ],
  "nodes": [
    {
      "children": [
        1
      ],
      "matrix": [
        1.0,
        0.0,
        0.0,
        0.0,
        0.0,
        2.220446049250313e-16,
        -1.0,
        0.0,
        0.0,
        1.0,
        2.220446049250313e-16,
        0.0,
        0.0,
        0.0,
        0.0,
        1.0
      ],
      "name": "Sketchfab_model"
    },
    {
      "children": [
        2
      ],
      "name": "roundedEdgesRailing2.obj.cleaner.materialmerger.gles"
    },
    {
      "mesh": 0,
      "name": "Object_2"
    }
  ],
  "scene": 0,
  "scenes": [
    {
      "name": "Sketchfab_Scene",
      "nodes": [
        0
      ]
    }
  ]
}
